<svg xmlns="http://www.w3.org/2000/svg" width="22" height="22" viewBox="0 0 22 22" fill="none">
<path d="M20.1663 6.92084C20.1663 7.52584 19.6713 8.02083 19.0663 8.02083H2.93301C2.32801 8.02083 1.83301 7.52584 1.83301 6.92084V6.91167C1.83301 4.8125 3.52884 3.11667 5.62801 3.11667H16.3622C18.4613 3.11667 20.1663 4.82167 20.1663 6.92084Z" fill="#1A1E25"/>
<path d="M1.83301 10.4958V15.0883C1.83301 17.1875 3.52884 18.8833 5.62801 18.8833H16.3622C18.4613 18.8833 20.1663 17.1783 20.1663 15.0792V10.4958C20.1663 9.89083 19.6713 9.39583 19.0663 9.39583H2.93301C2.32801 9.39583 1.83301 9.89083 1.83301 10.4958ZM7.33301 15.8125H5.49967C5.12384 15.8125 4.81217 15.5008 4.81217 15.125C4.81217 14.7492 5.12384 14.4375 5.49967 14.4375H7.33301C7.70884 14.4375 8.02051 14.7492 8.02051 15.125C8.02051 15.5008 7.70884 15.8125 7.33301 15.8125ZM13.2913 15.8125H9.62467C9.24884 15.8125 8.93717 15.5008 8.93717 15.125C8.93717 14.7492 9.24884 14.4375 9.62467 14.4375H13.2913C13.6672 14.4375 13.9788 14.7492 13.9788 15.125C13.9788 15.5008 13.6672 15.8125 13.2913 15.8125Z" fill="#1A1E25"/>
</svg>