<svg xmlns="http://www.w3.org/2000/svg" width="22" height="22" viewBox="0 0 22 22" fill="none">
<path d="M18.4247 8.45166C16.7655 8.45166 16.0872 7.27833 16.9122 5.83916C17.3888 5.005 17.1047 3.94166 16.2705 3.465L14.6847 2.5575C13.9605 2.12666 13.0255 2.38333 12.5947 3.1075L12.4938 3.28166C11.6688 4.72083 10.3122 4.72083 9.47801 3.28166L9.37717 3.1075C8.96467 2.38333 8.02967 2.12666 7.30551 2.5575L5.71967 3.465C4.88551 3.94166 4.60134 5.01416 5.07801 5.84833C5.91217 7.27833 5.23384 8.45166 3.57467 8.45166C2.62134 8.45166 1.83301 9.23083 1.83301 10.1933V11.8067C1.83301 12.76 2.61217 13.5483 3.57467 13.5483C5.23384 13.5483 5.91217 14.7217 5.07801 16.1608C4.60134 16.995 4.88551 18.0583 5.71967 18.535L7.30551 19.4425C8.02967 19.8733 8.96467 19.6167 9.39551 18.8925L9.49634 18.7183C10.3213 17.2792 11.678 17.2792 12.5122 18.7183L12.613 18.8925C13.0438 19.6167 13.9788 19.8733 14.703 19.4425L16.2888 18.535C17.123 18.0583 17.4072 16.9858 16.9305 16.1608C16.0963 14.7217 16.7747 13.5483 18.4338 13.5483C19.3872 13.5483 20.1755 12.7692 20.1755 11.8067V10.1933C20.1663 9.24 19.3872 8.45166 18.4247 8.45166ZM10.9997 13.9792C9.35884 13.9792 8.02051 12.6408 8.02051 11C8.02051 9.35916 9.35884 8.02083 10.9997 8.02083C12.6405 8.02083 13.9788 9.35916 13.9788 11C13.9788 12.6408 12.6405 13.9792 10.9997 13.9792Z" fill="#292D32"/>
</svg>